<svg xmlns="http://www.w3.org/2000/svg" viewBox="0 0 400 300" fill="none">
  <rect width="400" height="300" rx="12" fill="url(#bg-ackai)"/>
  <defs>
    <linearGradient id="bg-ackai" x1="0" y1="0" x2="400" y2="300">
      <stop offset="0%" stop-color="#1a1a2e"/>
      <stop offset="100%" stop-color="#16213e"/>
    </linearGradient>
  </defs>
  <!-- AWS-style cloud -->
  <path d="M160 140 Q160 115 185 115 Q190 95 215 100 Q240 90 255 110 Q275 108 275 130 Q290 130 290 145 Q290 160 275 160 L160 160 Q145 160 145 145 Q145 130 160 140Z" fill="none" stroke="#f59e0b" stroke-width="2"/>
  <!-- Scale of justice -->
  <line x1="200" y1="165" x2="200" y2="210" stroke="#f59e0b" stroke-width="2.5"/>
  <line x1="170" y1="180" x2="230" y2="180" stroke="#f59e0b" stroke-width="2"/>
  <path d="M165 180 L160 200 L180 200 L175 180" fill="none" stroke="#fbbf24" stroke-width="1.5"/>
  <path d="M225 180 L220 200 L240 200 L235 180" fill="none" stroke="#fbbf24" stroke-width="1.5"/>
  <!-- AI sparkle -->
  <circle cx="310" cy="100" r="3" fill="#fbbf24"/>
  <line x1="310" y1="93" x2="310" y2="107" stroke="#fbbf24" stroke-width="1"/>
  <line x1="303" y1="100" x2="317" y2="100" stroke="#fbbf24" stroke-width="1"/>
  <!-- Text -->
  <text x="200" y="235" text-anchor="middle" fill="#fcd34d" font-family="system-ui" font-size="18" font-weight="700">AckAI</text>
  <text x="200" y="257" text-anchor="middle" fill="#f59e0b" font-family="system-ui" font-size="11" opacity="0.8">AI Legal Assistance Platform</text>
</svg>
