<svg xmlns="http://www.w3.org/2000/svg" viewBox="0 0 400 300" fill="none">
  <rect width="400" height="300" rx="12" fill="url(#bg-sec)"/>
  <defs>
    <linearGradient id="bg-sec" x1="0" y1="0" x2="400" y2="300">
      <stop offset="0%" stop-color="#1a0a2e"/>
      <stop offset="100%" stop-color="#0f172a"/>
    </linearGradient>
  </defs>
  <!-- Shield -->
  <path d="M200 80 L245 100 L245 150 Q245 190 200 210 Q155 190 155 150 L155 100 Z" fill="none" stroke="#a855f7" stroke-width="2.5"/>
  <path d="M200 95 L235 110 L235 148 Q235 180 200 195 Q165 180 165 148 L165 110 Z" fill="#a855f7" opacity="0.1"/>
  <!-- Lock icon inside shield -->
  <rect x="188" y="135" width="24" height="18" rx="3" stroke="#c084fc" stroke-width="2" fill="none"/>
  <path d="M193 135 L193 125 Q193 115 200 115 Q207 115 207 125 L207 135" stroke="#c084fc" stroke-width="2" fill="none"/>
  <circle cx="200" cy="145" r="2.5" fill="#c084fc"/>
  <!-- Binary decoration -->
  <text x="90" y="120" fill="#a855f7" opacity="0.15" font-family="monospace" font-size="10">01101001</text>
  <text x="280" y="150" fill="#a855f7" opacity="0.15" font-family="monospace" font-size="10">10110010</text>
  <text x="85" y="200" fill="#a855f7" opacity="0.1" font-family="monospace" font-size="10">11001010</text>
  <text x="275" y="100" fill="#a855f7" opacity="0.1" font-family="monospace" font-size="10">01010110</text>
  <!-- Text -->
  <text x="200" y="240" text-anchor="middle" fill="#c084fc" font-family="system-ui" font-size="16" font-weight="700">Security Practice</text>
  <text x="200" y="260" text-anchor="middle" fill="#a855f7" font-family="system-ui" font-size="11" opacity="0.8">Offensive &amp; Defensive Security</text>
</svg>
